<?xml version="1.0" encoding="iso-8859-1"?>
<!-- Uploaded to: SVG Repo, www.svgrepo.com, Generator: SVG Repo Mixer Tools -->
<svg height="800px" width="800px" version="1.1" id="Layer_1" xmlns="http://www.w3.org/2000/svg" xmlns:xlink="http://www.w3.org/1999/xlink" 
	 viewBox="0 0 512 512" xml:space="preserve">
<circle style="fill:#006775;" cx="255.991" cy="255.998" r="255.991"/>
<path style="fill:#055661;" d="M243.346,511.684l-129.71-126.394L385.133,113.51l126.331,126.14
	c0.345,5.404,0.536,10.853,0.536,16.347c0,141.379-114.616,255.996-255.996,255.996c-4.241,0-8.463-0.109-12.66-0.318v0.009H243.346
	z"/>
<path style="fill:#EDEBFF;" d="M63.179,256.042c0,2.215,0.109,3.869,0.254,5.694c0.072,0.945-0.027,2.016,0.009,2.969
	c0.036,1.326,0.236,1.353,0.281,2.697c0.191,6.167,0.545,6.12,1.044,11.134c0.109,1.044,0.018,1.753,0.191,2.788
	c0.173,1.062,0.272,1.517,0.472,2.507c0.146,0.754,0.146,1.671,0.3,2.679c0.736,4.74,2.043,10.289,3.242,14.893l1.099,4.85
	c0.209,0.909,0.454,1.416,0.663,2.307l0.972,3.36c0.164,0.563,0.3,0.626,0.481,1.144c0.29,0.799,0.345,1.453,0.663,2.316
	l6.23,16.237c0.218,0.554,0.2,0.617,0.436,1.19l1.407,3.196c2.098,4.168,3.968,8.346,6.302,12.368l0.572,1.053
	c0.272,0.472,0.045,0.036,0.318,0.5l4.832,8.155c2.206,3.387,4.423,6.957,6.856,10.189c0.218,0.29,0.427,0.626,0.663,0.963
	l8.337,10.598c0.054,0.063,0.2,0.236,0.245,0.3l4.314,4.886c0.054,0.054,0.218,0.209,0.272,0.263l7.974,8.273
	c0.045,0.036,0.109,0.081,0.155,0.118l7.401,6.948c0.336,0.318,0.354,0.318,0.727,0.626l18.835,14.448
	c0.045,0.036,0.118,0.081,0.155,0.109l19.697,11.697l23.012,9.998l7.965,2.588c0.808,0.2,0.445,0.118,1.19,0.427
	c0.999,0.418,1.49,0.309,2.388,0.59l4.522,1.434c0.763,0.218,1.598,0.263,2.443,0.527c1.181,0.381,1.162,0.318,2.661,0.59
	c0.727,0.128,1.589,0.536,2.316,0.663c1.153,0.209,1.434,0.164,2.525,0.454c1.09,0.281,1.308,0.3,2.498,0.472l7.547,1.389
	c0.826,0.164,1.616,0.128,2.715,0.263c0.709,0.081,1.925,0.327,2.779,0.472c5.613,0.972,17.599,1.353,23.003,1.353
	c7.819,0,17.3-0.318,25.047-1.744c1.843-0.336,3.097-0.263,5.204-0.754c2.034-0.472,5.476-0.709,7.646-1.281l9.708-2.206
	c2.062-0.372,4.767-1.416,6.93-1.998l7.783-2.498c0.59-0.209,0.472-0.254,1.153-0.472l2.206-0.772
	c4.868-1.652,9.526-3.786,14.131-5.894l2.624-1.171c0.436-0.218,0.572-0.29,0.89-0.463c0.354-0.182,0.745-0.345,1.099-0.527
	l1.98-0.999c1.389-0.718,2.597-1.272,3.95-1.998c3.315-1.78,6.647-3.551,9.808-5.622l12.206-8.092
	c1.19-0.881,2.188-1.652,3.396-2.552c0.663-0.491,1.062-0.853,1.662-1.317l2.933-2.206c0.182-0.155,0.254-0.218,0.436-0.381
	l9.599-8.264c0.536-0.527,0.945-1.035,1.453-1.517c0.036-0.036,0.099-0.09,0.146-0.128c0.045-0.036,0.109-0.09,0.146-0.128
	l1.943-1.843c0.036-0.036,0.099-0.1,0.137-0.137l1.943-1.843c0.045-0.036,0.1-0.1,0.137-0.137l0.945-0.954
	c0.155-0.155,0.209-0.209,0.409-0.409l0.409-0.409c0.254-0.245,0.381-0.381,0.681-0.672l5.049-5.512
	c3.27-3.705,6.203-7.682,9.372-11.47l0.245-0.3c0.036-0.045,0.081-0.109,0.118-0.155l14.576-22.231
	c0.027-0.054,0.072-0.118,0.109-0.164l6.43-12.514c1.671-3.351,2.843-7.002,4.486-10.398c0.981-2.034,1.625-4.405,2.424-6.502
	c0.817-2.152,1.726-4.387,2.262-6.666c0.927-3.923,2.543-7.637,3.26-11.625l1.099-4.859c0.89-3.133,1.235-6.611,2.007-9.899
	c1.389-5.885,2.543-21.95,2.543-27.498v-6.766c0-4.795-0.781-17.119-1.652-22.159l-1.699-10.207
	c-0.164-0.927-0.509-1.643-0.626-2.352l-2.134-9.771c-0.29-0.881-0.381-1.616-0.608-2.37c-1.689-5.685-3.142-11.279-5.485-16.71
	l-0.372-1.253c-0.146-0.472-0.254-0.635-0.391-0.963c-0.155-0.381-0.254-0.763-0.436-1.181l-4.577-10.58
	c-0.381-0.754-0.617-1.407-0.918-2.062l-12.978-22.749c-0.481-0.736-0.635-1.09-1.172-1.807l-1.425-2.098
	c-0.036-0.045-0.081-0.109-0.118-0.146l-4.577-6.248c-0.036-0.045-0.081-0.109-0.118-0.155l-8.645-10.571
	c-0.49-0.5-0.336-0.391-0.736-0.89l-6.91-7.428c-0.036-0.036-0.1-0.1-0.137-0.137c-0.036-0.036-0.1-0.1-0.137-0.137l-2.752-2.661
	c-0.2-0.2-0.254-0.254-0.409-0.409l-9.345-8.519c-4.504-4.032-9.508-7.492-14.349-11.088c-0.045-0.036-0.109-0.081-0.155-0.118
	c-0.045-0.037-0.109-0.081-0.155-0.118l-15.093-9.536c-3.768-2.28-8.564-4.795-12.687-6.53c-0.345-0.146-0.672-0.336-1.081-0.536
	l-13.694-5.794c-0.5-0.2-0.617-0.2-1.217-0.409c-0.899-0.327-1.126-0.463-2.161-0.817l-8.918-2.987
	c-1.081-0.309-1.308-0.146-2.388-0.59l-11.833-3.052c-2.561-0.345-4.832-1.081-7.401-1.526c-1.035-0.182-1.825-0.127-2.661-0.318
	c-4.387-1.008-8.673-1.181-13.177-1.708c-10.108-1.181-24.374-1.144-34.437-0.027c-1.807,0.2-4.205,0.245-5.721,0.509l-15.348,2.516
	c-1.634,0.4-3.36,0.763-5.04,1.181c-1.008,0.254-1.444,0.218-2.433,0.545c-1.081,0.354-1.244,0.3-2.415,0.563
	c-3.615,0.817-10.171,2.996-13.885,4.241c-0.79,0.263-1.371,0.527-2.234,0.754L179.794,79.2c-0.281,0.118-0.29,0.1-0.581,0.236
	l-10.225,4.931c-1.416,0.691-2.57,1.281-3.941,2.007l-9.545,5.613c-0.263,0.173-0.545,0.318-0.862,0.491l-13.513,9.217
	c-0.045,0.036-0.1,0.09-0.146,0.127l-7.691,6.111c-0.045,0.036-0.1,0.09-0.146,0.127l-8.373,7.32
	c-0.345,0.363-0.354,0.409-0.635,0.718l-5.539,5.285c-0.263,0.254-0.5,0.481-0.681,0.672l-1.389,1.589
	c-0.018,0.018-0.309,0.3-0.409,0.409l-2.843,3.115c-0.063,0.072-0.236,0.227-0.409,0.409l-2.016,2.316
	c-0.227,0.272-0.063,0.09-0.381,0.436l-1.144,1.299c-0.036,0.045-0.09,0.1-0.127,0.146l-0.654,0.7
	c-3.732,4.332-7.12,9.036-10.371,13.713l-3.678,5.249c-0.509,0.718-0.617,1.126-1.126,1.853l-1.989,3.151
	c-0.227,0.381-0.081,0.118-0.309,0.5l-1.729,2.869c-0.218,0.372-0.372,0.681-0.572,1.053l-4.659,8.6
	c-0.236,0.491-0.309,0.644-0.536,1.081l-2.96,6.239c-1.526,3.387-2.779,7.165-4.405,10.48c-0.745,1.526-1.126,3.396-1.825,4.94
	l-4.159,13.159c-1.135,3.932-3.26,13.077-3.824,17.282c-0.09,0.7-0.336,1.616-0.527,2.443l-1.035,8.164
	c-0.118,1.598-0.59,3.642-0.754,5.195l-0.309,5.921c-0.036,1.398-0.209,1.517-0.272,2.706c-0.054,0.963,0.054,2.016,0,2.978
	l-0.272,5.958L63.179,256.042z"/>
<path style="fill:#D4D4E6;" d="M294.756,124.325c-8.727,0.245-20.361,2.134-22.904,11.288c-1.217,4.377,0.209,6.52,1.19,10.108
	c-1.771,0.254-3.025,0.963-4.513,1.226c-5.113,0.899-9.526,1.053-12.569,5.285c-2.888,4.005-2.606,7.583-1.181,10.58
	c-0.844,0.418-1.671,0.871-2.48,1.344c-2.043-3.995-6.403-6.856-11.733-5.812c-9.98,1.962-8.11,13.804-3.324,20.079
	c-2.397,3.66-4.286,7.682-5.548,11.978c-1.862,2.48-2.334,6.702-1.78,10.752c-0.027,0.663-0.045,1.317-0.045,1.98
	c0,5.149,0.862,10.099,2.461,14.711c-4.605,2.025-1.544,7.628,4.032,8.591c1.789,2.96,3.914,5.694,6.311,8.155
	c-0.109,0.036-0.227,0.063-0.336,0.09c-1.807-1.807-2.661-3.487-6.23-3.806c-3.306-0.3-4.913,1.162-6.657,3.615
	c-3.959,5.585-6.957,16.764-1.708,23.149c1.398,1.708,4.06,3.633,6.248,4.096c7.02,1.49,7.347-8.909,9.699-10.788
	c3.977,0.936,4.105,1.898,9.454,0.99c3.205-0.545,5.758-1.744,7.819-3.26c0.709-0.518,1.335-1.244,1.889-2.116
	c3.187,0.89,6.52,1.434,9.953,1.598c0.29,4.94,2.234,7.301,6.021,9c9.282,4.141,17.872-2.634,21.042-7.729
	c2.379-3.824,3.306-7.501,3.133-11.006c2.579-2.053,4.922-4.377,6.993-6.93c3.95,6.048,7.547,13.032,10.589,20.124
	c0.572,2.289,1.326,4.513,2.134,6.557c2.116,5.377,1.735,2.08,1.463,6.657c-2.915-0.445-4.069-1.625-7.574,0
	c-7.301,3.378-7.729,13.622-3.433,19.134c5.113,6.566,14.648,3.279,16.637-4.85c0.327-1.335,0.436-2.379,0.409-3.333
	c3.678,6.093,7.292,4.731,16.827,6.421c0.109,0.745,0.236,1.535,0.381,2.397c-6.711-0.227-11.879,1.916-15.647,6.784
	c-1.108,1.425-2.053,3.732-2.852,4.623c-5.622,0.109-2.107-0.345-5.594-2.688c-0.954-0.644-2.397-1.472-3.678-1.744
	c-3.025-0.663-6.647,0.5-9.027,1.652c-11.86,5.749-10.797,21.151-7.529,31.957c1.226,4.06,2.906,7.738,5.004,11.243
	c0.691,1.153,1.689,2.37,2.271,3.524c-1.126,3.088-1.371,4.332-1.38,7.901l-3.596-0.036c-2.942-4.132-0.608-3.995-0.5-7.592
	c0.054-1.862-0.327-2.87-1.044-4.159c-0.718-1.29-0.554-3.097-1.462-3.95c-1.925-1.798-5.985-1.235-8.355-0.263
	c-9.744,3.986-5.14,16.728-6.284,18.617c-1.135,1.871-6.149,6.484-7.974,7.72c-2.679,1.789-5.83,0.763-9.526,1.09
	c-23.648,2.125-17.563,27.817-12.969,30.677c4.804,2.987,12.233,0.491,16.074-2.733c1.444-1.217,3.959-3.678,4.931-5.603
	c4.895,0.272,8.182,1.035,13.531,0.727c4.132-0.236,8.246-1.272,11.252-3.043c3.587-2.116,4.504-3.759,6.203-8.137
	c1.807-4.659,2.098-6.948,1.544-12.487c4.659-0.545,3.061,0.572,6.73,1.58c1.952,0.536,5.985,0.826,8.137,0.79
	c5.467-0.1,9.345-3.651,11.333-6.784c2.525-3.986,3.642-9.508,2.243-14.884c-1.643-6.329-4.141-7.538-7.664-10.525
	c0.173-2.134,0.327-3.569,0.381-5.866c2.47,0.1,3.678,0.018,5.885-0.563c1.425,1.19,1.78,2.206,3.66,3.587
	c4.74,3.46,12.006,3.941,17.291,1.607c6.766-2.996,6.53-6.384,8.427-9.699c0.59-1.026,0.826-1.499,1.144-2.652
	c0.681-2.561,0.427-4.286-0.164-6.702c6.829-1.816,5.794-5.377,7.301-8.11c0.309-0.563,0.853-0.835,1.335-1.344
	c2.253-2.334,3.705-5.058,4.341-8.636c0.309-1.744,0.272-3.025,0.128-4.831c-0.146-1.78,0.799-1.934,1.643-3.433
	c3.741-6.611,2.57-18.744-5.721-21.405c-3.732-1.199-5.658,0.4-7.965,1.689l0.09-9.136c1.153-0.963,2.37-0.626,4.632-2.834
	c1.571-1.535,1.753-2.852,2.761-4.967c1.463,4.895,3.905,9.771,10.072,9.399c5.049-0.3,8.609-5.303,9.027-10.516
	c0.709-8.882-7.428-16.492-14.549-11.234c-2.834,2.098-2.433,3.505-4.223,5.821c-0.309-1.226-0.527-2.343-1.053-3.542
	c-0.545-1.262-1.181-1.943-1.699-3.079c1.834-0.691,4.06-3.079,2.244-5.594c-1.698-2.361-3.297-1.753-6.275-2.688
	c0.018-6.311,2.634-5.785,3.606-14.004c1.843-15.483-5.848-27.571-21.713-26.926c-2.098,0.081-1.843,0.563-3.687-0.309
	c0.254-4.695,0.89-6.602-1.308-10.853c-1.272-2.452-4.232-5.703-6.748-6.575c0.754-3.187,11.652-18.753,0.245-26.445
	c-4.268-2.87-8.836-3.578-13.903-0.899c-4.196,2.215-6.066,6.421-5.876,12.532l-8.755-0.844c0.617-3.025,5.04-7.846-0.472-17.236
	c-1.062-1.807-2.28-3.015-3.124-4.522c17.682-2.715,3.56-21.123-9.699-13.786c-4.078,2.262-4.504,4.232-4.132,10.099
	L294.756,124.325z M152.949,160.906c-4.958,0.981-2.379,5.413,2.206,4.45C159.597,164.429,157.526,159.998,152.949,160.906z
	 M182.31,163.694c-4.323,1.398-2.316,7.547,1.907,6.348C188.385,168.861,186.577,162.313,182.31,163.694z M322.117,368.38
	c-3.787-1.508-4.405,2.298-7.038,5.339c-0.727,0.835-1.072,2.016-0.218,3.015c0.644,0.736,4.141,1.472,6.339-1.226
	c1.217-1.49,1.708-5.058,0.909-7.129h0.008V368.38z M223.202,265.741c-5.321,2.316-2.489,11.397,2.507,9.417
	c1.744-0.691,3.07-3.405,2.507-6.075c-0.445-2.098-2.352-4.504-5.013-3.351L223.202,265.741L223.202,265.741z M167.707,160.979
	c-8.082,1.744-4.568,10.626,2.996,9.036c2.498-0.527,5.431-2.733,4.196-5.921c-0.871-2.262-4.15-3.759-7.193-3.106V160.979z
	 M191.427,168.625c1.699,3.478,8.709,5.186,12.932,3.151c6.784-3.251-2.034-7.356-5.312-7.52
	C195.831,164.094,192.499,166.055,191.427,168.625z M234.346,274.614c16.583,1.88,9.554,21.832-6.602,17.191
	c0.745,1.272,2.679,2.743,4.069,3.442c2.062,1.035,3.759,0.817,6.066,0.182c4.087-1.126,6.939-3.551,8.482-6.684
	c2.897-5.876,0.663-13.531-5.177-14.776c-2.897-0.617-4.295,0.173-6.847,0.644H234.346z M357.262,338.956
	c-10.444,2.179-13.268,15.656-6.129,15.166c3.523-0.245,6.684-4.105,8.046-6.412C361.622,343.579,361.521,338.065,357.262,338.956z
	 M323.715,119.495c-7.074,2.071-5.866,15.847,6.158,11.361c3.678-1.371,6.748-3.396,3.387-7.419
	C331.662,121.52,327.865,118.287,323.715,119.495z M250.729,104.61l-10.189-0.318c9.163,4.587,19.807,4.45,29.742,1.607
	c18.163-5.195,9.735-12.55-0.09-13.676l1.326,1.226c0.972,0.727,3.088,2.806,3.36,4.304c1.253,6.838-20.16,6.856-24.139,6.856
	L250.729,104.61L250.729,104.61z M384.398,199.638c-7.12,1.816-5.721,22.049,1.481,20.234c3.279-0.826,4.777-6.702,4.596-10.925
	C390.31,205.195,388.348,198.63,384.398,199.638z M257.349,256.56c-10.308,2.752-11.652,14.567-9.073,16.546
	c4.123,3.178,14.121,0.663,17.391-7.819c2.397-6.221-2.225-10.362-8.319-8.736L257.349,256.56L257.349,256.56z M216.074,162.277
	c-12.496,2.188-6.52,15.802-0.009,20.714c3.07,2.316,4.786,2.661,8.546,0.918C242.3,175.726,228.488,160.097,216.074,162.277z
	 M100.295,239.16c-2.806,0.372-2.761,0.281-4.123,1.971c-3.478,4.295-3.759,8.727-0.999,13.513c2.188,3.796,8.355,9.545,14.839,9.69
	c4.241,0.09,5.24-2.37,6.158-5.912c0.899-3.469,1.008-7.501-0.054-10.925c-1.971-6.339-7.601-9.417-15.82-8.328L100.295,239.16
	L100.295,239.16z M224.474,141.172c-2.443-0.745-5.839-1.816-8.454-0.491c-6.23,3.151-2.498,12.759,4.196,10.725
	c2.706-0.826,4.632-2.897,5.585-5.267c1.989,1.78,4.45,6.91,13.014,7.301c5.494,0.254,13.34-0.691,17.545-3.006
	c14.639-18.199-20.261-30.178-29.832-13.595C224.838,138.62,225.346,139.737,224.474,141.172z M370.884,182.02
	c1.58-1.326,2.561-8.454,2.615-10.961c0.146-7.529-3.16-13.867-9.273-17.7c-2.507-1.571-7.383-3.496-11.207-2.661
	c-3.015,0.663-2.987,7.783-2.742,10.898C351.178,172.939,357.562,182.02,370.884,182.02z M129.864,319.059
	c-7.038,0.853-11.56,3.306-12.913,9.717c-1.616,7.655,4.341,22.476,7.792,25.918c1.744,1.735,3.777,3.596,6.149,5.213
	c5.158,3.533,11.379,4.45,18.771,3.151c7.301-1.29,11.524-2.397,12.796-9.617c1.162-6.593-1.472-13.313-4.051-18.081
	C153.903,327.032,144.149,317.324,129.864,319.059z"/>
<path style="fill:#333333;" d="M202.942,197.912l-98.779,20.606c24.383-1.453,61.599,18.889,63.434,34.364
	c26.082-3.36,25.719,3.624,38.878,15.175c24.139-7.765,44.217,6.957,47.741,10.552c8.564,8.746,12.532,14.466,18.817,14.74
	c8.155,0.345,12.359-9.481,20.433-15.447c10.189-7.538,24.61-11.569,39.231-10.698c11.924-11.315,20.615-22.113,44.68-12.687
	c1.834-15.465,37.851-37.452,62.225-35.999l-94.392-20.478c-5.395,19.179-39.804,71.997-50.829,17.863c0,0,3.914-3.251-2.67-14.149
	c-6.593-10.907-13.05,9.172-13.05,9.172c-2.498,0.173-4.632,0.027-5.721,0.99c-1.09-0.963-3.224-0.817-5.721-0.99
	c0,0-6.457-20.079-13.05-9.172c-6.584,10.898-2.661,14.149-2.661,14.149c-10.853,53.289-42.637,3.187-48.585-17.99L202.942,197.912
	L202.942,197.912z"/>
<path style="fill:#FFFF00;" d="M288.526,214.822l-12.832,10.326c0,0,4.877,3.896,10.253,1.744c5.377-2.152,2.57-12.069,2.57-12.069
	H288.526z"/>
<path style="fill:#FFBA00;" d="M288.526,214.822l-12.832,10.326c0,0,0.054,0.045,0.155,0.118l12.024-8.064
	c0.945,3.142,0.754,5.912-0.409,8.709c3.279-3.26,1.062-11.079,1.062-11.079V214.822z"/>
<path style="fill:#FFFF00;" d="M257.376,214.822l12.832,10.326c0,0-4.877,3.896-10.253,1.744
	C254.579,224.739,257.376,214.822,257.376,214.822z"/>
<path style="fill:#FFBA00;" d="M257.376,214.822l12.832,10.326c0,0-0.054,0.045-0.155,0.118l-12.024-8.064
	c-0.945,3.142-0.754,5.912,0.409,8.709c-3.279-3.26-1.062-11.079-1.062-11.079V214.822z"/>
<path style="fill:#333333;" d="M257.503,340.154l51.891,13.122c-12.886-1.317-33.066,8.645-34.382,16.791
	c-13.75-2.361-13.713,1.353-20.941,7.184c-12.614-4.65-23.593,2.706-25.537,4.531c-4.731,4.441-6.957,7.392-10.298,7.392
	c-9.799,0.009-11.933-14.466-25.855-14.221c-6.066-6.257-15.62-13.14-28.58-8.682c-0.626-8.237-19.226-20.687-32.175-20.46
	l50.474-8.755c2.433,10.289,19.489,39.041,26.536,10.598c0,0-2.007-1.807,1.726-7.438c3.732-5.631,6.711,5.149,6.711,5.149
	c1.317,0.146,2.452,0.118,3.006,0.644c0.599-0.481,1.726-0.363,3.052-0.4c0,0,3.869-10.498,7.12-4.577
	c3.251,5.921,1.099,7.556,1.099,7.556c4.568,28.479,22.522,2.643,26.145-8.454L257.503,340.154z"/>
<path style="fill:#FFFF00;" d="M211.77,347.22l6.566,5.758c0,0-2.67,1.952-5.476,0.7c-2.806-1.262-1.099-6.448-1.099-6.448
	L211.77,347.22z"/>
<path style="fill:#FFBA00;" d="M211.77,347.22l6.566,5.758c0,0-0.027,0.027-0.081,0.054l-6.194-4.54
	c-0.572,1.643-0.536,3.115,0.027,4.623C210.425,351.315,211.77,347.22,211.77,347.22z"/>
<path style="fill:#FFFF00;" d="M228.279,347.91l-7.029,5.186c0,0,2.498,2.17,5.395,1.153
	C229.542,353.223,228.279,347.91,228.279,347.91z"/>
<path style="fill:#FFBA00;" d="M228.279,347.91l-7.029,5.186c0,0,0.027,0.027,0.081,0.063l6.548-4.014
	c0.427,1.689,0.272,3.151-0.409,4.605c1.807-1.652,0.808-5.848,0.808-5.848L228.279,347.91L228.279,347.91z"/>
</svg>